# xmcd
# 
# Track frame offsets:
#     182
#     18532
#     38270
#     55870
#     72095
#     89395
#     106232
#     129370
#     145407
#     159370
#     173945
#     187107
#     199345
#     219520
#     234082
#     254945
# 
# Disc length: 3494
# 
# Revision: 6
# Processed by: cddbd v1.5.2PL0 Copyright (c) Steve Scherf et al.
# Submitted via: fre:ac v1.0.27
# 
DISCID=e00da410
DTITLE=Chris Barber's Jazz Band - Live in 1954/55
DYEAR=1954
DGENRE=Jazz
TTITLE0=Chris Barber - All The Girls Go Crazy About The Way I Walk
TTITLE1=Chris Barber - I Never Knew Just What a Gal Could Do
TTITLE2=Chris Barber - St. Louis Blues
TTITLE3=Chris Barber - I'd Love It
TTITLE4=Chris Barber - Merrydown Blues
TTITLE5=Chris Barber - Skokiaan
TTITLE6=Chris Barber - Storyville Blues
TTITLE7=Chris Barber - It's Thight Like That
TTITLE8=Lonnie Donegan - Bury My Body
TTITLE9=Lonnie Donegan - Diggin' My Potatoes
TTITLE10=Chris Barber - Salutation March
TTITLE11=Chris Barber - I Hate A Man Like You
TTITLE12=Chris Barber - The World Is Waiting For The Sunrise
TTITLE13=Chris Barber - Reckless Blues
TTITLE14=Chris Barber - Ice Cream
TTITLE15=Chris Barber - Oh, Didn't He Ramble
EXTD=YEAR: 1954
EXTT0=Pat Halcox (co), Chris Barber (tb), Monty Sunshine (cl), Lonnie Donegan (bj), Jim Bray (b), Ron Bowdwn (d)
EXTT1=Same personnel as 1
EXTT2=Same personnel as 1, Ottilie Patterson (vo) added
EXTT3=Same personnel as 1 except Bray plays (sousaphon) and Bertie King (as) added
EXTT4=Same personnel as 1 with Bertie King (as) added
EXTT5=Same personnel as 1
EXTT6=Same personnel as 1
EXTT7=Same personnel as 1, bur Barber also (vo) and Bray now (sou)
EXTT8=Pat Halcox and Chris Barber vocal backing
EXTT9=Lonnie Donegan (g,vo), Pat Halcox (p), Jim Bray (bj), Chris Barber (b), Ron Bowdwn (d)
EXTT10=Same personnel as 1
EXTT11=Same personnel as 3
EXTT12=Same personnel as 1
EXTT13=Same personnel as 3
EXTT14=Same personnel as 1 but Halcox also (vo)
EXTT15=Same personnel as 1 but Sunshine also (vo)
PLAYORDER=
